# xmcd
#
# Track frame offsets: 
#        150
#        18498
#        34932
#        56308
#        75243
#        104957
#        127206
#        140473
#        156979
#        180986
#        196086
#        219923
#        234706
#        247627
#        262609
#        276604
#        292834
#        302987
#        319196
#        338651
#
# Disc length: 4769 seconds
#
# Revision: 0
# Processed by: cddbd v1.5.2PL0 Copyright (c) Steve Scherf et al.
# Submitted via: ExactAudioCopy v0.95b3
#
DISCID=18129f14
DTITLE=John Lennon  - Come On, Listen To Me [CD1]  FLAC
DYEAR=1900
DGENRE=
TTITLE0=Going Down On Love
TTITLE1=Whatever Gets You Thru The Night
TTITLE2=Old Dirt Road
TTITLE3=What You Got
TTITLE4=Bless You
TTITLE5=Scared
TTITLE6=#9 Dream
TTITLE7=Surprise, Surprise (Sweet Bird Of Paradox)
TTITLE8=Steel And Glass
TTITLE9=Beef Jerky
TTITLE10=Nobody Loves You (When You're Down And Out)
TTITLE11=Whatever Gets You Thru The Night
TTITLE12=Whatever Gets You Thru The Night
TTITLE13=Whatever Gets You Thru The Night
TTITLE14=Whatever Gets You Thru The Night
TTITLE15=Whatever Gets You Thru The Night
TTITLE16=Whatever Gets You Thru The Night
TTITLE17=Whatever Gets You Thru The Night
TTITLE18=Whatever Gets You Thru The Night
TTITLE19=Whatever Gets You Thru The Night
EXTD=
EXTT0=
EXTT1=
EXTT2=
EXTT3=
EXTT4=
EXTT5=
EXTT6=
EXTT7=
EXTT8=
EXTT9=
EXTT10=
EXTT11=
EXTT12=
EXTT13=
EXTT14=
EXTT15=
EXTT16=
EXTT17=
EXTT18=
EXTT19=
PLAYORDER=
